<?xml version="1.0" encoding="UTF-8"?>
<svg xmlns="http://www.w3.org/2000/svg" xmlns:xlink="http://www.w3.org/1999/xlink" width="100pt" height="100pt" viewBox="0 0 100 100" version="1.1">
<g id="surface1">
<path style=" stroke:none;fill-rule:nonzero;fill:#000000;fill-opacity:1;" d="M 37.375 10 C 33.953125 10 30.867188 10.882813 28.3125 12.9375 C 25.757813 14.992188 23.796875 18.0625 22.125 22.25 C 22.125 22.273438 22.125 22.289063 22.125 22.3125 L 20.8125 26 L 13 26 C 5.890625 26 0 31.914063 0 39.1875 L 0 69 C 0 75.429688 4.585938 80.773438 10.5625 81.9375 L 10.0625 83.8125 L 10.0625 83.875 C 9.640625 85.351563 9.820313 86.945313 10.6875 88.125 C 11.5625 89.320313 13.09375 90 14.625 90 L 22 90 C 25.171875 90 27.820313 87.890625 28.6875 85 C 28.710938 84.976563 28.726563 84.960938 28.75 84.9375 L 29.5 82.1875 L 40.875 82.1875 L 42.4375 85.3125 C 43.820313 88.078125 46.554688 90 49.625 90 L 64.375 90 C 67.445313 90 70 87.445313 70 84.375 L 70 69.625 C 70.007813 69.484375 70 69.328125 70 69.1875 C 70 69.125 70 69.0625 70 69 L 70 68 L 80 68 C 80.703125 68 82.671875 69.117188 84.75 70.625 C 86.828125 72.132813 89.0625 74 92 74 L 98 74 C 98.53125 74.007813 99.046875 73.796875 99.421875 73.421875 C 99.796875 73.046875 100.007813 72.53125 100 72 L 100 36 C 100.007813 35.46875 99.796875 34.953125 99.421875 34.578125 C 99.046875 34.203125 98.53125 33.992188 98 34 L 92 34 C 89.101563 34 86.976563 35.875 84.875 37.375 C 82.773438 38.875 80.703125 40 80 40 L 70 40 L 70 39.1875 C 70 38.976563 69.945313 38.773438 69.9375 38.5625 C 69.984375 38.382813 70.007813 38.1875 70 38 L 70 26 L 74.3125 26 C 75.03125 28.257813 76.929688 30 79.375 30 L 91.1875 30 C 92.679688 30 94.671875 29.476563 96.5625 27.9375 C 98.453125 26.398438 100 23.71875 100 20 C 100 16.28125 98.453125 13.601563 96.5625 12.0625 C 94.671875 10.523438 92.679688 10 91.1875 10 L 79.375 10 C 76.929688 10 75.03125 11.742188 74.3125 14 L 66.25 14 C 63.882813 11.5625 60.625 10 57 10 Z M 37.375 14 L 57 14 C 61.890625 14 66 18.109375 66 23 L 66 29.75 C 64.84375 28.617188 63.507813 27.703125 62 27.0625 L 62 24 C 62 22.335938 61.25 20.875 60.1875 19.8125 C 59.125 18.75 57.664063 18 56 18 L 36 18 C 33.335938 18 30.664063 19.5 29.5625 22.25 C 29.539063 22.289063 29.515625 22.335938 29.5 22.375 L 28.3125 26 L 25.0625 26 L 25.875 23.75 L 25.875 23.6875 C 27.390625 19.90625 29.023438 17.5 30.8125 16.0625 C 32.609375 14.617188 34.59375 14 37.375 14 Z M 79.375 14 L 91.1875 14 C 91.492188 14 92.9375 14.265625 94 15.125 C 95.0625 15.984375 96 17.320313 96 20 C 96 22.679688 95.0625 24.015625 94 24.875 C 92.9375 25.734375 91.492188 26 91.1875 26 L 79.375 26 C 78.914063 26 78 25.226563 78 24 L 78 16 C 78 14.773438 78.914063 14 79.375 14 Z M 68.9375 18 L 74 18 L 74 22 L 69.9375 22 C 69.828125 20.59375 69.46875 19.25 68.9375 18 Z M 36 22 L 56 22 C 56.335938 22 56.875 22.25 57.3125 22.6875 C 57.75 23.125 58 23.664063 58 24 L 58 26.0625 C 57.664063 26.039063 57.335938 26 57 26 L 32.5 26 L 33.25 23.75 C 33.265625 23.71875 33.296875 23.71875 33.3125 23.6875 L 33.3125 23.625 C 33.828125 22.476563 34.71875 22 36 22 Z M 13 30 L 21.625 30 C 22.007813 30.117188 22.429688 30.117188 22.8125 30 L 57 30 C 61.890625 30 66 34.0625 66 39.1875 L 66 69 C 66 69.085938 66 69.164063 66 69.25 C 65.867188 74.257813 61.804688 78.1875 57 78.1875 L 42.8125 78.1875 C 42.257813 77.921875 41.617188 77.921875 41.0625 78.1875 L 28.8125 78.1875 C 28.28125 77.9375 27.65625 77.9375 27.125 78.1875 L 14 78.1875 C 13.671875 78.03125 13.304688 77.960938 12.9375 78 C 12.765625 78.023438 12.601563 78.0625 12.4375 78.125 C 7.804688 77.828125 4 73.921875 4 69 L 4 39.1875 C 4 34.0625 8.109375 30 13 30 Z M 13.625 37.8125 C 12.5625 37.992188 11.789063 38.921875 11.8125 40 L 11.8125 56 C 11.804688 56.578125 12.039063 57.140625 12.445313 57.554688 C 12.859375 57.960938 13.421875 58.195313 14 58.1875 L 38 58.1875 C 38.578125 58.195313 39.140625 57.960938 39.554688 57.554688 C 39.960938 57.140625 40.195313 56.578125 40.1875 56 L 40.1875 40 C 40.195313 39.421875 39.960938 38.859375 39.554688 38.445313 C 39.140625 38.039063 38.578125 37.804688 38 37.8125 L 14 37.8125 C 13.9375 37.8125 13.875 37.8125 13.8125 37.8125 C 13.75 37.8125 13.6875 37.8125 13.625 37.8125 Z M 92 38 L 96 38 L 96 70 L 92 70 C 91.140625 70 89.132813 68.867188 87.0625 67.375 C 85.492188 66.242188 83.9375 64.898438 82 64.3125 L 82 43.6875 C 83.945313 43.101563 85.53125 41.757813 87.125 40.625 C 89.226563 39.125 91.296875 38 92 38 Z M 16.1875 42.1875 L 35.8125 42.1875 L 35.8125 53.8125 L 16.1875 53.8125 Z M 70 44 L 78 44 L 78 64 L 70 64 Z M 66 78.5 L 66 84.375 C 66 85.304688 65.304688 86 64.375 86 L 49.625 86 C 48.695313 86 46.617188 84.734375 46 83.5 L 45.375 82.1875 L 57 82.1875 C 60.460938 82.1875 63.65625 80.78125 66 78.5 Z M 14.6875 82.1875 L 25.3125 82.1875 L 24.875 83.8125 L 24.875 83.875 C 24.523438 84.96875 23.210938 86 22 86 L 14.625 86 C 14.15625 86 14.015625 85.851563 13.9375 85.75 C 13.859375 85.648438 13.78125 85.507813 13.9375 85 C 13.9375 84.976563 13.9375 84.960938 13.9375 84.9375 Z "/>
</g>
</svg>
