<?xml version="1.0" encoding="UTF-8"?>
<svg xmlns="http://www.w3.org/2000/svg" xmlns:xlink="http://www.w3.org/1999/xlink" width="100pt" height="100pt" viewBox="0 0 100 100" version="1.1">
<g id="surface1">
<path style=" stroke:none;fill-rule:nonzero;fill:#000000;fill-opacity:1;" d="M 48.75 8 C 44.945313 8 41.398438 10.828125 39.875 14.75 L 38.625 18 L 28 18 L 28 16 C 28 14.898438 27.101563 14 26 14 L 12 14 C 10.898438 14 10 14.898438 10 16 L 10 18.8125 C 4.273438 20.570313 0 25.71875 0 32 L 0 74 C 0 81.710938 6.289063 88 14 88 L 86 88 C 93.710938 88 100 81.710938 100 74 L 100 32 C 100 24.289063 93.710938 18 86 18 L 81.375 18 L 80.125 14.75 C 78.601563 10.828125 75.0625 8 71.25 8 Z M 48.75 12 L 71.25 12 C 72.78125 12 75.421875 13.734375 76.375 16.1875 L 78.125 20.75 C 78.429688 21.515625 79.179688 22.007813 80 22 L 86 22 C 91.546875 22 96 26.453125 96 32 L 96 74 C 96 79.546875 91.546875 84 86 84 L 14 84 C 8.453125 84 4 79.546875 4 74 L 4 32 C 4 27.023438 7.585938 22.921875 12.3125 22.125 C 13.273438 21.976563 13.984375 21.15625 14 20.1875 L 14 18 L 24 18 L 24 20 C 24 21.101563 24.898438 22 26 22 L 40 22 C 40.820313 22.007813 41.570313 21.515625 41.875 20.75 L 43.625 16.1875 C 44.578125 13.734375 47.21875 12 48.75 12 Z M 60 26 C 45.671875 26 34 37.671875 34 52 C 34 66.328125 45.671875 78 60 78 C 74.328125 78 86 66.328125 86 52 C 86 37.671875 74.328125 26 60 26 Z M 14 28 C 11.789063 28 10 29.789063 10 32 C 10 34.210938 11.789063 36 14 36 C 16.210938 36 18 34.210938 18 32 C 18 29.789063 16.210938 28 14 28 Z M 60 30 C 72.171875 30 82 39.828125 82 52 C 82 64.171875 72.171875 74 60 74 C 47.828125 74 38 64.171875 38 52 C 38 39.828125 47.828125 30 60 30 Z "/>
</g>
</svg>
