<?xml version="1.0" encoding="UTF-8"?>
<svg xmlns="http://www.w3.org/2000/svg" xmlns:xlink="http://www.w3.org/1999/xlink" width="100pt" height="100pt" viewBox="0 0 100 100" version="1.1">
<g id="surface1">
<path style=" stroke:none;fill-rule:nonzero;fill:#000000;fill-opacity:1;" d="M 34 4 C 27.398438 4 22 9.398438 22 16 C 22 19.96875 23.953125 23.5 26.9375 25.6875 C 25.335938 26.492188 23.875 27.53125 22.625 28.8125 C 21.171875 28.296875 19.625 28 18 28 C 10.289063 28 4 34.289063 4 42 C 4 46.898438 6.539063 51.25 10.375 53.75 C 4.265625 56.640625 0 62.828125 0 70 L 0 79 C -0.0078125 79.640625 0.296875 80.242188 0.8125 80.625 C 0.8125 80.625 2.226563 81.625 4.9375 82.4375 C 7.648438 83.25 11.835938 84 18 84 C 24.164063 84 28.351563 83.25 31.0625 82.4375 C 31.414063 82.335938 31.695313 82.234375 32 82.125 L 32 91 C 31.992188 91.640625 32.296875 92.242188 32.8125 92.625 C 32.8125 92.625 34.226563 93.625 36.9375 94.4375 C 39.648438 95.25 43.835938 96 50 96 C 56.164063 96 60.351563 95.25 63.0625 94.4375 C 65.773438 93.625 67.1875 92.625 67.1875 92.625 C 67.703125 92.242188 68.007813 91.640625 68 91 L 68 82.125 C 68.304688 82.234375 68.585938 82.335938 68.9375 82.4375 C 71.648438 83.25 75.835938 84 82 84 C 88.164063 84 92.351563 83.25 95.0625 82.4375 C 97.773438 81.625 99.1875 80.625 99.1875 80.625 C 99.703125 80.242188 100.007813 79.640625 100 79 L 100 70 C 100 62.828125 95.734375 56.640625 89.625 53.75 C 93.460938 51.25 96 46.898438 96 42 C 96 34.289063 89.710938 28 82 28 C 80.257813 28 78.601563 28.351563 77.0625 28.9375 C 75.804688 27.617188 74.320313 26.515625 72.6875 25.6875 C 75.671875 23.5 77.625 19.96875 77.625 16 C 77.625 9.398438 72.226563 4 65.625 4 C 59.023438 4 53.625 9.398438 53.625 16 C 53.625 19.96875 55.578125 23.5 58.5625 25.6875 C 53.96875 27.953125 50.609375 32.3125 49.8125 37.5625 C 49.015625 32.304688 45.664063 27.945313 41.0625 25.6875 C 44.046875 23.5 46 19.96875 46 16 C 46 9.398438 40.601563 4 34 4 Z M 34 8 C 38.445313 8 42 11.554688 42 16 C 42 20.445313 38.445313 24 34 24 C 29.554688 24 26 20.445313 26 16 C 26 11.554688 29.554688 8 34 8 Z M 65.625 8 C 70.070313 8 73.625 11.554688 73.625 16 C 73.625 20.445313 70.070313 24 65.625 24 C 61.179688 24 57.625 20.445313 57.625 16 C 57.625 11.554688 61.179688 8 65.625 8 Z M 34 28 C 40.742188 28 46 33.257813 46 40 L 46 40.625 C 40.25 42.367188 36 47.695313 36 54 C 36 58.898438 38.539063 63.25 42.375 65.75 C 39.867188 66.9375 37.71875 68.679688 36 70.8125 L 36 70 C 36 62.828125 31.734375 56.640625 25.625 53.75 C 29.460938 51.25 32 46.898438 32 42 C 32 37.4375 29.773438 33.375 26.375 30.8125 C 28.453125 29.039063 31.03125 28 34 28 Z M 65.625 28 C 68.679688 28 71.335938 29.070313 73.4375 30.9375 C 70.140625 33.5 68 37.523438 68 42 C 68 46.898438 70.539063 51.25 74.375 53.75 C 68.265625 56.640625 64 62.828125 64 70 L 64 70.8125 C 62.28125 68.679688 60.132813 66.9375 57.625 65.75 C 61.460938 63.25 64 58.898438 64 54 C 64 47.554688 59.578125 42.109375 53.625 40.5 L 53.625 40 C 53.625 33.257813 58.882813 28 65.625 28 Z M 18 32 C 19.554688 32 21 32.375 22.3125 33 C 25.671875 34.609375 28 38.007813 28 42 C 28 47.546875 23.546875 52 18 52 C 12.453125 52 8 47.546875 8 42 C 8 36.453125 12.453125 32 18 32 Z M 82 32 C 87.546875 32 92 36.453125 92 42 C 92 47.546875 87.546875 52 82 52 C 76.453125 52 72 47.546875 72 42 C 72 38.304688 73.976563 35.109375 76.9375 33.375 C 76.953125 33.367188 76.984375 33.382813 77 33.375 C 77.296875 33.3125 77.570313 33.1875 77.8125 33 C 77.882813 32.96875 77.929688 32.90625 78 32.875 C 78.039063 32.859375 78.085938 32.835938 78.125 32.8125 C 79.320313 32.304688 80.617188 32 82 32 Z M 50 44 C 55.546875 44 60 48.453125 60 54 C 60 59.546875 55.546875 64 50 64 C 44.453125 64 40 59.546875 40 54 C 40 48.453125 44.453125 44 50 44 Z M 18 56 C 25.710938 56 32 62.289063 32 70 L 32 77.6875 C 31.703125 77.867188 31.585938 78.070313 29.9375 78.5625 C 27.648438 79.25 23.835938 80 18 80 C 12.164063 80 8.351563 79.25 6.0625 78.5625 C 4.414063 78.070313 4.296875 77.867188 4 77.6875 L 4 70 C 4 62.289063 10.289063 56 18 56 Z M 82 56 C 89.710938 56 96 62.289063 96 70 L 96 77.6875 C 95.703125 77.867188 95.585938 78.070313 93.9375 78.5625 C 91.648438 79.25 87.835938 80 82 80 C 76.164063 80 72.351563 79.25 70.0625 78.5625 C 68.414063 78.070313 68.296875 77.867188 68 77.6875 L 68 70 C 68 62.289063 74.289063 56 82 56 Z M 50 68 C 57.710938 68 64 74.289063 64 82 L 64 89.6875 C 63.703125 89.867188 63.585938 90.070313 61.9375 90.5625 C 59.648438 91.25 55.835938 92 50 92 C 44.164063 92 40.351563 91.25 38.0625 90.5625 C 36.414063 90.070313 36.296875 89.867188 36 89.6875 L 36 82 C 36 74.289063 42.289063 68 50 68 Z "/>
</g>
</svg>
